<svg width="96" height="96" viewBox="0 0 96 96" fill="none" xmlns="http://www.w3.org/2000/svg">
<path d="M0 47.9967C0 21.4888 21.4888 0 47.9967 0C74.5045 0 95.9934 21.4888 95.9934 47.9967C95.9934 74.5045 74.5045 95.9934 47.9967 95.9934C21.4888 95.9934 0 74.5045 0 47.9967Z" fill="#C97777" fill-opacity="0.1"/>
<path d="M47.9967 67.9953C51.7095 67.9953 55.2702 66.5204 57.8955 63.895C60.5209 61.2697 61.9957 57.709 61.9957 53.9962C61.9957 49.9965 59.9959 46.1968 55.9962 42.997C51.9964 39.7972 48.9966 34.9975 47.9967 29.9979C46.9968 34.9975 43.997 39.7972 39.9973 42.997C35.9975 46.1968 33.9977 49.9965 33.9977 53.9962C33.9977 57.709 35.4726 61.2697 38.0979 63.895C40.7232 66.5204 44.2839 67.9953 47.9967 67.9953Z" stroke="#C97777" stroke-width="2.99979" stroke-linecap="round" stroke-linejoin="round"/>
</svg>
