<svg width="32" height="32" viewBox="0 0 32 32" fill="none" xmlns="http://www.w3.org/2000/svg">
<path d="M7.99695 29.322V5.33128C7.99695 4.62431 8.27779 3.9463 8.77769 3.4464C9.2776 2.94649 9.95561 2.66565 10.6626 2.66565H21.3251C22.0321 2.66565 22.7101 2.94649 23.21 3.4464C23.7099 3.9463 23.9908 4.62431 23.9908 5.33128V29.322H7.99695Z" stroke="#A3A3A3" stroke-width="1.99923" stroke-linecap="round" stroke-linejoin="round"/>
<path d="M7.99692 15.9938H5.33128C4.62431 15.9938 3.9463 16.2747 3.4464 16.7746C2.94649 17.2745 2.66565 17.9525 2.66565 18.6595V26.6564C2.66565 27.3633 2.94649 28.0414 3.4464 28.5413C3.9463 29.0412 4.62431 29.322 5.33128 29.322H7.99692" stroke="#A3A3A3" stroke-width="1.99923" stroke-linecap="round" stroke-linejoin="round"/>
<path d="M23.9907 11.9954H26.6564C27.3633 11.9954 28.0413 12.2762 28.5412 12.7761C29.0411 13.276 29.322 13.954 29.322 14.661V26.6564C29.322 27.3633 29.0411 28.0413 28.5412 28.5412C28.0413 29.0411 27.3633 29.322 26.6564 29.322H23.9907" stroke="#A3A3A3" stroke-width="1.99923" stroke-linecap="round" stroke-linejoin="round"/>
<path d="M13.3281 7.99689H18.6594" stroke="#A3A3A3" stroke-width="1.99923" stroke-linecap="round" stroke-linejoin="round"/>
<path d="M13.3281 13.3282H18.6594" stroke="#A3A3A3" stroke-width="1.99923" stroke-linecap="round" stroke-linejoin="round"/>
<path d="M13.3281 18.6594H18.6594" stroke="#A3A3A3" stroke-width="1.99923" stroke-linecap="round" stroke-linejoin="round"/>
<path d="M13.3281 23.9907H18.6594" stroke="#A3A3A3" stroke-width="1.99923" stroke-linecap="round" stroke-linejoin="round"/>
</svg>
