<svg width="96" height="96" viewBox="0 0 96 96" fill="none" xmlns="http://www.w3.org/2000/svg">
<path d="M0 47.9967C0 21.4888 21.4888 0 47.9967 0C74.5045 0 95.9934 21.4888 95.9934 47.9967C95.9934 74.5045 74.5045 95.9934 47.9967 95.9934C21.4888 95.9934 0 74.5045 0 47.9967Z" fill="#C97777" fill-opacity="0.1"/>
<path d="M44.5328 65.9954C44.8839 66.6034 45.3888 67.1083 45.9968 67.4593C46.6048 67.8103 47.2945 67.9951 47.9966 67.9951C48.6987 67.9951 49.3884 67.8103 49.9964 67.4593C50.6044 67.1083 51.1093 66.6034 51.4604 65.9954" stroke="#C97777" stroke-width="2.99979" stroke-linecap="round" stroke-linejoin="round"/>
<path d="M30.5219 54.6482C30.2606 54.9345 30.0882 55.2906 30.0256 55.6732C29.963 56.0557 30.013 56.4482 30.1693 56.8029C30.3257 57.1575 30.5818 57.4591 30.9064 57.6709C31.231 57.8828 31.6102 57.9957 31.9978 57.996H63.9956C64.3832 57.9961 64.7624 57.8836 65.0872 57.6722C65.4121 57.4608 65.6685 57.1595 65.8252 56.8051C65.982 56.4506 66.0324 56.0583 65.9703 55.6757C65.9082 55.2931 65.7363 54.9369 65.4755 54.6502C62.8157 51.9084 59.9959 48.9946 59.9959 39.9972C59.9959 36.8148 58.7317 33.7628 56.4814 31.5125C54.2311 29.2622 51.1791 27.998 47.9967 27.998C44.8143 27.998 41.7623 29.2622 39.512 31.5125C37.2617 33.7628 35.9975 36.8148 35.9975 39.9972C35.9975 48.9946 33.1757 51.9084 30.5219 54.6482Z" stroke="#C97777" stroke-width="2.99979" stroke-linecap="round" stroke-linejoin="round"/>
</svg>
